<?xml version="1.0" encoding="UTF-8" standalone="no"?>
<!-- Created with Inkscape (http://www.inkscape.org/) -->

<svg
   width="10.319mm"
   height="9.6297436mm"
   viewBox="0 0 10.319 9.6297436"
   version="1.1"
   id="svg1"
   xml:space="preserve"
   xmlns="http://www.w3.org/2000/svg"
   xmlns:svg="http://www.w3.org/2000/svg"><defs
     id="defs1" /><g
     id="layer1"
     transform="translate(-40.145152,-47.191821)"><g
       id="g19"><g
         style="fill:#e98857;fill-opacity:1"
         id="g17"
         transform="matrix(0.6449375,0,0,0.6449375,40.145152,46.546883)"><path
           d="m 16,8 c 0,3.866 -3.582,7 -8,7 A 9,9 0 0 1 5.653,14.694 C 5.069,14.99 3.728,15.558 1.472,15.928 1.272,15.96 1.12,15.752 1.199,15.566 1.553,14.73 1.873,13.616 1.969,12.6 0.744,11.37 0,9.76 0,8 0,4.134 3.582,1 8,1 c 4.418,0 8,3.134 8,7 M 5,8 A 1,1 0 1 0 3,8 1,1 0 0 0 5,8 M 9,8 A 1,1 0 1 0 7,8 1,1 0 0 0 9,8 m 3,1 a 1,1 0 1 0 0,-2 1,1 0 0 0 0,2"
           id="path1-2"
           style="fill:#e98857;fill-opacity:1" /></g><g
         id="g18"
         style="fill:#b34f4f;fill-opacity:1;stroke:#b34f4f;stroke-width:0.05;stroke-dasharray:none;stroke-opacity:1"><circle
           style="fill:#b34f4f;fill-opacity:1;stroke:#b34f4f;stroke-width:0.05;stroke-linecap:round;stroke-miterlimit:2;stroke-dasharray:none;stroke-opacity:1"
           id="path17"
           cx="47.889835"
           cy="51.709198"
           r="0.64999998" /><circle
           style="fill:#b34f4f;fill-opacity:1;stroke:#b34f4f;stroke-width:0.05;stroke-linecap:round;stroke-miterlimit:2;stroke-dasharray:none;stroke-opacity:1"
           id="path17-4"
           cx="45.305019"
           cy="51.709198"
           r="0.64999998" /><circle
           style="fill:#b34f4f;fill-opacity:1;stroke:#b34f4f;stroke-width:0.05;stroke-linecap:round;stroke-miterlimit:2;stroke-dasharray:none;stroke-opacity:1"
           id="path17-4-3"
           cx="42.720207"
           cy="51.709198"
           r="0.64999998" /></g></g></g></svg>
