<?xml version="1.0" encoding="UTF-8" standalone="no"?>
<!-- Created with Inkscape (http://www.inkscape.org/) -->

<svg
   width="10.320307mm"
   height="13.764274mm"
   viewBox="0 0 10.320307 13.764274"
   version="1.1"
   id="svg1"
   xml:space="preserve"
   xmlns="http://www.w3.org/2000/svg"
   xmlns:svg="http://www.w3.org/2000/svg"><defs
     id="defs1" /><g
     id="layer1"
     transform="translate(-72.383307,-46.565753)"><g
       style="fill:currentColor"
       id="g1"
       transform="matrix(0.85991626,0,0,0.85991626,69.07663,43.131783)"><g
         id="g4"><path
           d="M 3.8453529,9.999905 C 3.845218,5.7030814 8.2293611,2.7989964 12.185764,4.4750429 c 3.956403,1.6760465 4.920276,6.8457051 1.833589,9.8348621 -0.203,0.196 -0.359,0.4 -0.453,0.619 l -0.762,1.769 c -0.07902,0.183243 -0.259443,0.30195 -0.459,0.302 H 7.3453529 c -0.1999203,3.5e-4 -0.3808317,-0.118423 -0.46,-0.302 l -0.761,-1.77 c -0.1097582,-0.233271 -0.2635808,-0.443121 -0.453,-0.618 -1.1690158,-1.128872 -1.8282521,-2.684901 -1.826,-4.31 m 3,8.5 c 0,-0.276142 0.2238576,-0.5 0.5,-0.5 h 5.0000001 c 0.666666,0 0.666666,1 0,1 l -0.224,0.447 c -0.169264,0.338729 -0.515334,0.552798 -0.894,0.553 H 8.4633529 c -0.3786657,-2.02e-4 -0.7247365,-0.214271 -0.894,-0.553 l -0.224,-0.447 c -0.2761424,0 -0.5,-0.223858 -0.5,-0.5"
           id="path1-8"
           style="fill:#fcac5c;fill-opacity:1" /><path
           d="m 6.84611,18.499905 c 0,-0.276142 0.2238576,-0.5 0.5,-0.5 h 5 c 0.666666,0 0.666666,1 0,1 l -0.224,0.447 c -0.169264,0.338729 -0.515334,0.552798 -0.894,0.553 h -2.764 c -0.3786657,-2.02e-4 -0.7247365,-0.214271 -0.894,-0.553 l -0.224,-0.447 c -0.2761424,0 -0.5,-0.223858 -0.5,-0.5"
           style="fill:#b34f4f;fill-opacity:1"
           id="path1-5" /></g></g></g></svg>
