<?xml version="1.0" encoding="UTF-8" standalone="no"?>
<!-- Created with Inkscape (http://www.inkscape.org/) -->

<svg
   width="10.319mm"
   height="10.319mm"
   viewBox="0 0 10.319 10.319"
   version="1.1"
   id="svg1"
   xml:space="preserve"
   xmlns="http://www.w3.org/2000/svg"
   xmlns:svg="http://www.w3.org/2000/svg"><defs
     id="defs1" /><g
     id="layer1"
     transform="translate(-101.87716,-58.231393)"><g
       style="fill:#b34f4f;fill-opacity:1"
       id="g16"
       transform="matrix(0.6449375,0,0,0.6449375,101.87716,58.231393)"><path
         d="M 0,0.5 A 0.5,0.5 0 0 1 0.5,0 h 5 A 0.5,0.5 0 0 1 6,0.5 v 5.277 l 4.147,-4.131 a 0.5,0.5 0 0 1 0.707,0 l 3.535,3.536 a 0.5,0.5 0 0 1 0,0.708 L 10.261,10 H 15.5 a 0.5,0.5 0 0 1 0.5,0.5 v 5 A 0.5,0.5 0 0 1 15.5,16 H 3 A 3,3 0 0 1 0.879,15.121 3,3 0 0 1 0,13.044 m 6,-0.21 7.328,-7.3 L 10.499,2.706 6,7.188 Z M 4.5,13 a 1.5,1.5 0 1 0 -3,0 1.5,1.5 0 0 0 3,0 M 15,15 V 11 H 9.258 L 5.243,15 Z M 0,0.5 V 12.995 Z M 0,12.995 V 13 Z"
         id="path1"
         style="fill:#b34f4f;fill-opacity:1" /></g></g></svg>
