<?xml version="1.0" encoding="UTF-8" standalone="no"?>
<!-- Created with Inkscape (http://www.inkscape.org/) -->

<svg
   width="10.319mm"
   height="10.319mm"
   viewBox="0 0 10.319 10.319"
   version="1.1"
   id="svg1"
   xml:space="preserve"
   xmlns="http://www.w3.org/2000/svg"
   xmlns:svg="http://www.w3.org/2000/svg"><defs
     id="defs1" /><g
     id="layer1"
     transform="translate(-47.151383,-63.755508)"><g
       style="fill:currentColor"
       id="g2"
       transform="matrix(0.6449375,0,0,0.6449375,47.151383,63.755508)"><g
         id="g9"
         style="fill:#000000;fill-opacity:1"><g
           id="g11"><path
             d="m 14,1 a 1,1 0 0 1 1,1 v 12 a 1,1 0 0 1 -1,1 H 2 A 1,1 0 0 1 1,14 V 2 A 1,1 0 0 1 2,1 Z M 2,0 A 2,2 0 0 0 0,2 v 12 a 2,2 0 0 0 2,2 h 12 a 2,2 0 0 0 2,-2 V 2 A 2,2 0 0 0 14,0 Z"
             id="path1-0"
             style="fill:#b34f4f;fill-opacity:1" /><path
             d="m 6.854,4.646 a 0.5,0.5 0 0 1 0,0.708 L 4.207,8 6.854,10.646 a 0.5006316,0.5006316 0 0 1 -0.708,0.708 l -3,-3 a 0.5,0.5 0 0 1 0,-0.708 l 3,-3 a 0.5,0.5 0 0 1 0.708,0 m 2.292,0 a 0.5,0.5 0 0 0 0,0.708 L 11.793,8 9.146,10.646 a 0.5006316,0.5006316 0 0 0 0.708,0.708 l 3,-3 a 0.5,0.5 0 0 0 0,-0.708 l -3,-3 a 0.5,0.5 0 0 0 -0.708,0"
             id="path2-9"
             style="fill:#718174;fill-opacity:1" /></g></g></g></g></svg>
