<?xml version="1.0" encoding="UTF-8" standalone="no"?>
<!-- Created with Inkscape (http://www.inkscape.org/) -->

<svg
   width="10.319mm"
   height="10.319mm"
   viewBox="0 0 10.319 10.319"
   version="1.1"
   id="svg1"
   xml:space="preserve"
   xmlns="http://www.w3.org/2000/svg"
   xmlns:svg="http://www.w3.org/2000/svg"><defs
     id="defs1" /><g
     id="layer1"
     transform="translate(-62.032873,-93.505153)"><g
       style="fill:currentColor"
       id="g3"
       transform="matrix(0.26458333,0,0,0.26458333,62.032873,93.504747)"><g
         id="g8"
         transform="matrix(2.4375591,0,0,2.4375591,0,0.00153449)"><path
           d="M 4.545,6.714 4.11,8 H 3 L 4.862,3 H 6.146 L 8,8 H 6.833 L 6.398,6.714 Z M 6.179,5.978 5.5,3.956 H 5.451 L 4.772,5.978 Z"
           id="path1-4"
           style="fill:#fcac5c;fill-opacity:1" /><path
           d="M 0,2 A 2,2 0 0 1 2,0 h 7 a 2,2 0 0 1 2,2 v 3 h 3 a 2,2 0 0 1 2,2 v 7 a 2,2 0 0 1 -2,2 H 7 A 2,2 0 0 1 5,14 V 11 H 2 A 2,2 0 0 1 0,9 Z M 2,1 A 1,1 0 0 0 1,2 v 7 a 1,1 0 0 0 1,1 H 9 A 1,1 0 0 0 10,9 V 2 A 1,1 0 0 0 9,1 Z m 7.138,9.995 q 0.289,0.451 0.63,0.846 C 9.02,12.416 8.095,12.842 7,13.133 7.178,13.35 7.451,13.768 7.555,14 c 1.125,-0.359 2.08,-0.844 2.886,-1.494 0.777,0.665 1.739,1.165 2.93,1.472 0.133,-0.254 0.414,-0.673 0.629,-0.89 -1.125,-0.253 -2.057,-0.694 -2.82,-1.284 0.681,-0.747 1.222,-1.651 1.621,-2.757 H 14 V 8 h -3 v 1.047 h 0.765 c -0.318,0.844 -0.74,1.546 -1.272,2.13 a 6,6 0 0 1 -0.415,-0.492 2,2 0 0 1 -0.94,0.31"
           id="path2-8"
           style="fill:#b34f4f;fill-opacity:1" /></g></g></g></svg>
